<?xml version="1.0" encoding="UTF-8" standalone="no"?>
<!DOCTYPE svg PUBLIC "-//W3C//DTD SVG 1.1//EN" "http://www.w3.org/Graphics/SVG/1.1/DTD/svg11.dtd">
<svg width="100%" height="100%" viewBox="0 0 24 24" version="1.1" xmlns="http://www.w3.org/2000/svg" xmlns:xlink="http://www.w3.org/1999/xlink" xml:space="preserve" xmlns:serif="http://www.serif.com/" style="fill-rule:evenodd;clip-rule:evenodd;stroke-linejoin:round;stroke-miterlimit:2;">
    <g transform="matrix(1,0,0,1,-90,-4)">
        <g id="tweetdeck" transform="matrix(1,0,0,1,0.73779,0.149752)">
            <rect x="88.928" y="3.808" width="24" height="24" style="fill:none;"/>
            <clipPath id="_clip1">
                <rect x="88.928" y="3.808" width="24" height="24"/>
            </clipPath>
            <g clip-path="url(#_clip1)">
                <g transform="matrix(1,0,0,1,-0.73779,-0.149752)">
                    <path d="M98.557,24.767L101.763,27.958L104.689,24.767L110.604,24.767C112.327,24.767 113.727,23.368 113.727,21.644L113.727,7.067C113.727,5.343 112.327,3.943 110.604,3.943L92.851,3.943C91.127,3.943 89.727,5.343 89.727,7.067L89.727,21.644C89.727,23.368 91.127,24.767 92.851,24.767L98.557,24.767Z" style="fill:rgb(29,161,242);"/>
                </g>
                <g id="bird" transform="matrix(0.065101,0,0,0.065101,92.9697,7.86951)">
                    <path d="M221.95,51.29C222.1,53.46 222.1,55.63 222.1,57.82C222.1,124.55 171.3,201.51 78.41,201.51L78.41,201.47C50.97,201.51 24.1,193.65 1,178.83C4.99,179.31 9,179.55 13.02,179.56C35.76,179.58 57.85,171.95 75.74,157.9C54.13,157.49 35.18,143.4 28.56,122.83C36.13,124.29 43.93,123.99 51.36,121.96C27.8,117.2 10.85,96.5 10.85,72.46L10.85,71.82C17.87,75.73 25.73,77.9 33.77,78.14C11.58,63.31 4.74,33.79 18.14,10.71C43.78,42.26 81.61,61.44 122.22,63.47C118.15,45.93 123.71,27.55 136.83,15.22C157.17,-3.9 189.16,-2.92 208.28,17.41C219.59,15.18 230.43,11.03 240.35,5.15C236.58,16.84 228.69,26.77 218.15,33.08C228.16,31.9 237.94,29.22 247.15,25.13C240.37,35.29 231.83,44.14 221.95,51.29Z" style="fill:white;fill-rule:nonzero;"/>
                </g>
                <g transform="matrix(0.473482,-0.473482,0.473482,0.473482,94.4227,13.1818)">
                    <rect x="14.071" y="5.047" width="1.224" height="4.393"/>
                </g>
                <g transform="matrix(0.473482,0.473482,-0.473482,0.473482,101.282,-0.722521)">
                    <rect x="14.071" y="5.047" width="1.224" height="4.393"/>
                </g>
            </g>
        </g>
    </g>
</svg>
